<svg width="25" height="25" viewBox="0 0 25 25" fill="none" xmlns="http://www.w3.org/2000/svg">
<g filter="url(#filter0_i_224_1749)">
<path d="M1.30641 0.0507259C0.797809 0.148403 0.357673 0.495156 0.137604 0.964005C0.0300153 1.19355 0.00556329 1.31076 0.00556329 1.63309C0.00556329 2.39009 -0.326984 2.01403 5.26275 7.59139L10.2021 12.5241L5.21874 17.5056C1.17437 21.5543 0.220741 22.5311 0.127823 22.7313C-0.0384504 23.0781 -0.0433408 23.7032 0.118043 24.05C0.259864 24.3576 0.57285 24.68 0.885837 24.846C1.23795 25.0267 1.80034 25.0511 2.20625 24.9046C2.48989 24.7972 2.66594 24.6311 7.50256 19.8059L12.5006 14.8195L17.479 19.7815C21.4745 23.7667 22.5014 24.7679 22.6971 24.8607C22.9024 24.9583 23.0149 24.9779 23.4062 24.9779C23.8121 24.9779 23.9001 24.9583 24.1153 24.846C24.4185 24.6897 24.7461 24.343 24.888 24.0353C25.0444 23.7032 25.0347 23.0732 24.8733 22.7313C24.7804 22.5311 23.8267 21.5543 19.7824 17.5056L14.799 12.5241L19.7384 7.59139C25.3281 2.01403 24.9955 2.39009 24.9955 1.63309C24.9955 1.31564 24.9711 1.19355 24.8684 0.973773C24.4723 0.133751 23.4795 -0.208118 22.6481 0.202125C22.521 0.265615 20.736 2.00915 17.479 5.26179L12.5006 10.2287L7.52701 5.26179C4.26511 2.00915 2.48011 0.265615 2.35296 0.202125C2.18668 0.1191 1.64385 -0.017648 1.55093 0.00188741C1.53626 0.00677126 1.42378 0.0263066 1.30641 0.0507259Z" fill="white"/>
</g>
<defs>
<filter id="filter0_i_224_1749" x="0" y="0" width="25" height="29" filterUnits="userSpaceOnUse" color-interpolation-filters="sRGB">
<feFlood flood-opacity="0" result="BackgroundImageFix"/>
<feBlend mode="normal" in="SourceGraphic" in2="BackgroundImageFix" result="shape"/>
<feColorMatrix in="SourceAlpha" type="matrix" values="0 0 0 0 0 0 0 0 0 0 0 0 0 0 0 0 0 0 127 0" result="hardAlpha"/>
<feOffset dy="4"/>
<feGaussianBlur stdDeviation="2"/>
<feComposite in2="hardAlpha" operator="arithmetic" k2="-1" k3="1"/>
<feColorMatrix type="matrix" values="0 0 0 0 0 0 0 0 0 0 0 0 0 0 0 0 0 0 0.25 0"/>
<feBlend mode="normal" in2="shape" result="effect1_innerShadow_224_1749"/>
</filter>
</defs>
</svg>
