<svg width="31" height="30" viewBox="0 0 31 30" fill="none" xmlns="http://www.w3.org/2000/svg">
<path d="M15.3532 6.76172C9.23016 8.92383 4.09735 10.7461 3.93914 10.8047C3.58172 10.9395 3.36493 11.2207 3.32391 11.5957C3.29461 11.918 3.44696 12.2871 3.68133 12.4336C3.83954 12.5449 12.488 16.582 12.5524 16.582C12.5759 16.582 13.6013 15.5801 14.8259 14.3613C16.777 12.4102 17.0817 12.1348 17.2751 12.0996C17.738 12.0117 18.3181 12.416 18.4059 12.8789C18.488 13.3184 18.4411 13.3828 16.1149 15.7031C14.9079 16.9102 13.9177 17.9238 13.9177 17.9473C13.9177 18.0117 17.9548 26.6543 18.0661 26.8242C18.195 27.0176 18.5583 27.1875 18.8513 27.1875C19.1852 27.1875 19.4899 26.9766 19.6481 26.6484C19.7126 26.5078 21.5524 21.3457 23.7263 15.1699C26.4509 7.45312 27.6872 3.87305 27.6872 3.70898C27.6872 3.24023 27.2302 2.80664 26.7556 2.81836C26.5563 2.82422 23.5153 3.87305 15.3532 6.76172Z" fill="white"/>
</svg>
