<svg width="90" height="90" viewBox="0 0 90 90" fill="none" xmlns="http://www.w3.org/2000/svg">
<path d="M42.8904 3.58593C41.3787 4.0078 40.4998 4.53515 37.3533 6.87304C33.3807 9.80859 32.5896 10.2832 31.1482 10.6172C30.4979 10.7578 28.2303 10.9687 26.1033 11.0742C20.5311 11.373 19.1424 11.7949 17.033 13.8867C15.4158 15.4863 15.0115 16.4707 13.8338 21.4805C12.4275 27.4394 12.7264 26.9473 6.94316 32.5195C4.28887 35.0684 3.60332 36.0351 3.07598 38.0566C2.42559 40.6055 2.79473 42.1523 5.25566 47.0742C6.31035 49.1836 7.29473 51.3281 7.45293 51.8555C7.83965 53.1387 7.80449 54.5098 7.29473 58.623C7.04863 60.5566 6.85527 62.5781 6.85527 63.1055C6.85527 66.1641 8.77129 69.2578 11.5838 70.7168C12.2166 71.0508 14.0975 71.8945 15.7322 72.5977C19.0896 74.0039 19.951 74.4785 20.9529 75.375C21.3221 75.709 22.7635 77.6953 24.1346 79.7871C27.3162 84.5859 28.4939 85.6758 31.201 86.3965C33.3807 86.959 34.4178 86.8008 39.8143 85.1133C42.8904 84.1465 43.0311 84.1289 44.9998 84.1289C47.0037 84.1289 47.074 84.1465 50.8885 85.3242C56.1619 86.959 57.7791 87.0469 60.3982 85.7988C62.1561 84.9727 63.2283 83.7773 65.9705 79.6289C69.117 74.8652 69.2752 74.7422 73.8982 72.7559C75.7439 71.9824 77.783 71.0508 78.4158 70.7168C80.8768 69.4512 82.6346 66.9727 83.0213 64.2656C83.1795 63.123 83.1443 62.3848 82.74 58.8516C82.2127 54.4394 82.16 53.2266 82.4412 52.1191C82.5467 51.7324 83.5838 49.4824 84.7264 47.1094C86.4314 43.6113 86.8709 42.5566 87.0467 41.5371C87.3455 39.7266 87.0643 37.9863 86.2205 36.2461C85.6404 35.0508 85.2537 34.6113 83.074 32.5195C77.3084 27 77.5721 27.4219 76.201 21.6562C75.6736 19.459 75.1287 17.3144 74.9705 16.875C74.3201 15.0644 72.5623 13.0957 70.7869 12.2344C69.2928 11.4961 67.9744 11.2851 63.8963 11.0742C59.8885 10.8633 58.3064 10.6172 57.1463 10.0371C56.7947 9.84374 54.9842 8.57812 53.1561 7.20702C49.6932 4.62304 48.6561 4.0078 47.0916 3.60351C45.949 3.2871 43.9803 3.2871 42.8904 3.58593ZM48.8318 16.541C50.8533 16.7871 53.9119 17.5781 55.8104 18.3516C65.3201 22.2715 72.0877 30.9902 73.4764 41.1504C73.74 43.0488 73.74 46.9512 73.4764 48.8496C72.1756 58.3594 66.1814 66.6562 57.5857 70.8223C54.1756 72.4746 50.8006 73.3711 47.1268 73.6172C35.367 74.4082 24.6443 68.3613 19.3182 57.9023C15.908 51.1875 15.3455 42.5215 17.8768 35.4199C19.4764 30.9199 22.535 26.4375 26.0682 23.3965C32.5193 17.8418 40.2537 15.5215 48.8318 16.541Z" fill="white"/>
<path d="M43.1151 20.0674C31.5321 20.8997 22.123 29.5619 20.2548 41.1115C19.9151 43.1837 19.9151 46.8524 20.2548 48.9245C22.0211 59.8457 30.513 68.2022 41.4846 69.8157C43.3529 70.0875 46.9704 70.0535 48.8896 69.7478C60.4387 67.8795 69.0835 58.4699 69.9327 46.8524C71.0366 31.5661 58.4176 18.9634 43.1151 20.0674ZM58.1458 34.2157C59.1649 34.6913 59.4536 34.997 59.9461 36.101C60.3707 37.0522 60.3198 38.309 59.8442 39.2432C59.3857 40.1434 43.9982 55.5485 43.2 55.9052C42.4187 56.2619 41.4676 56.3129 40.4826 56.0411C39.9221 55.8882 39.005 55.056 35.1666 51.2344C32.619 48.7037 30.3772 46.3938 30.1903 46.088C29.7657 45.4087 29.6129 44.1178 29.8507 43.2346C30.0884 42.3344 30.9546 41.3153 31.8038 40.9247C32.653 40.534 34.0796 40.5171 34.9288 40.8567C35.3195 41.0266 36.7122 42.2835 38.6313 44.1858L41.6884 47.243L48.0234 40.8398C52.5072 36.3218 54.5622 34.3686 55.0548 34.1308C56.0228 33.7062 57.1098 33.7232 58.1458 34.2157Z" fill="white"/>
</svg>
