<svg width="90" height="90" viewBox="0 0 90 90" fill="none" xmlns="http://www.w3.org/2000/svg">
<g clip-path="url(#clip0_211_856)">
<path d="M41.3577 3.16412C39.0937 3.3774 38.5523 3.96803 38.2898 6.5274C38.0765 8.56178 37.6827 9.75944 36.7148 11.2032C34.9921 13.7954 32.3835 15.1735 29.2991 15.1571C26.707 15.1407 24.7382 14.4188 22.7695 12.7618C21.3257 11.5313 20.4234 11.236 19.521 11.7282C18.6023 12.204 16.4202 14.1727 14.1562 16.5516C11.2687 19.5868 11.1046 20.4071 13.0406 22.5071C14.6812 24.2626 15.4687 26.3297 15.4687 28.7907C15.4687 33.811 11.9906 37.3876 6.49446 37.9782C4.55852 38.1915 3.91868 38.4868 3.55774 39.3399C2.80305 41.1446 2.83586 49.3477 3.60696 50.5126C4.00071 51.1196 5.36242 51.7266 6.31399 51.7266C8.77492 51.7266 11.4491 53.0391 13.139 55.0571C14.6976 56.9274 15.403 59.0766 15.2554 61.4883C15.1077 63.8672 14.4679 65.3602 12.7452 67.3946C11.1538 69.2649 11.1866 69.9704 12.9257 72.054C14.2054 73.5797 16.8468 76.2211 18.1757 77.3204C19.7179 78.5836 20.7515 78.5344 22.2773 77.1563C23.9999 75.5977 26.0343 74.7282 28.2655 74.5805C30.989 74.4165 33.2202 75.2204 35.1562 77.0907C36.9609 78.8297 37.8468 80.8149 38.0437 83.604C38.1749 85.343 38.3718 85.8516 39.1265 86.311C40.521 87.1805 49.003 87.2297 50.4468 86.393C51.2507 85.9172 51.5296 85.2938 51.7101 83.4727C51.9234 81.4383 52.3171 80.2407 53.2851 78.7969C55.0077 76.2047 57.6163 74.8266 60.7007 74.843C63.2929 74.8594 65.2616 75.5813 67.2304 77.2383C68.6741 78.4688 69.5765 78.7641 70.4788 78.2719C71.857 77.5501 77.3038 72.218 77.9437 70.9711C78.5179 69.8555 78.239 68.8876 76.9593 67.493C75.3023 65.7047 74.5312 63.6868 74.5312 61.111C74.5312 58.486 75.4663 56.3532 77.4023 54.5321C79.1577 52.8915 80.9624 52.1532 83.6038 51.9563C86.0812 51.7758 86.557 51.3001 86.8195 48.6258C87.164 45.3118 86.9343 40.3079 86.4093 39.5204C85.9827 38.8477 85.0804 38.4212 83.7351 38.2735C80.7163 37.929 79.289 37.2891 77.4679 35.4844C75.4171 33.4665 74.5804 31.2844 74.7445 28.5118C74.8921 26.1657 75.5484 24.6235 77.2546 22.6055C78.846 20.7352 78.8132 20.0297 77.0741 17.9462C75.7945 16.4204 73.1531 13.779 71.8241 12.6797C70.2984 11.4329 69.2155 11.4657 67.8046 12.7782C66.8202 13.6969 65.4093 14.5501 64.0476 15.0094C62.6038 15.518 59.6507 15.5508 58.3054 15.0751C55.4671 14.0907 53.1866 11.6954 52.3171 8.77506C52.1859 8.28288 52.0218 7.21647 51.9562 6.39616C51.8249 4.65709 51.628 4.1485 50.8405 3.67271C49.889 3.08209 44.9835 2.81959 41.3577 3.16412ZM48.3632 21.0633C57.5835 22.2446 65.5898 29.168 68.2148 38.2079C69.2812 41.8829 69.4616 46.1321 68.707 49.8727C68.2312 52.1696 66.9843 55.5001 66.0327 56.9438C65.7866 57.3212 65.7374 57.2883 60.4874 52.0383L55.2046 46.7555L55.5163 45.8696C57.3046 40.6852 56.0905 34.943 52.3991 31.0219C48.7241 27.1008 43.9171 25.5258 38.6835 26.4938C36.9445 26.8219 36.4687 27.2157 36.4687 28.3641C36.4687 28.9547 36.6655 29.1844 40.2421 32.7774C44.557 37.1087 44.2124 36.4524 43.7695 39.5368C43.4577 41.8008 43.2116 42.6704 42.8835 42.7688C42.3093 42.9493 39.6843 43.3594 38.4374 43.4579L37.1249 43.5727L33.3843 39.8649C31.3335 37.8305 29.4468 36.0751 29.2007 35.993C28.2327 35.6321 27.3304 36.3868 27.0515 37.7813C26.0015 42.9985 27.5437 48.0844 31.2515 51.661C33.8765 54.2204 37.0101 55.5821 40.6523 55.779C42.703 55.8774 44.2288 55.6969 46.0991 55.0899L47.3788 54.6797L52.678 59.979C55.582 62.8829 57.9445 65.3274 57.9116 65.4258C57.8132 65.7047 54.3023 67.3946 52.7109 67.9196C43.3101 71.0204 33.1382 68.2313 26.7398 60.8321C17.9952 50.7094 19.078 35.468 29.1679 26.7399C34.5163 22.1133 41.1609 20.1446 48.3632 21.0633Z" fill="white"/>
</g>
<defs>
<clipPath id="clip0_211_856">
<rect width="84" height="84" fill="white" transform="translate(3 3)"/>
</clipPath>
</defs>
</svg>
