<svg width="90" height="90" viewBox="0 0 90 90" fill="none" xmlns="http://www.w3.org/2000/svg">
<path d="M34.8499 3.18872C31.4679 3.96034 28.5292 6.68565 27.4456 10.0841C27.1337 11.102 27.0845 11.693 27.0024 15.1242L26.9367 19.0316H18.2683C10.2401 19.0316 9.55058 19.048 8.7297 19.3435C7.23571 19.8525 6.43126 20.345 5.46262 21.3136C4.32982 22.4629 3.72237 23.5136 3.31193 25.0896C3.03283 26.206 3 26.9612 3 34.2506V42.1803H6.57901C10.7491 42.1803 11.7505 42.3444 13.8027 43.3459C14.9027 43.8713 15.4773 44.2981 16.5444 45.3488C17.6772 46.4816 18.022 46.9413 18.6459 48.2547C19.0563 49.1084 19.4832 50.2741 19.5981 50.8487C19.8608 52.2606 19.713 54.9531 19.2697 56.2993C18.4489 58.8933 16.3967 61.2902 13.9833 62.5051C11.8326 63.5887 11.1431 63.7036 6.80886 63.8021L3 63.9006V71.8795C3 78.4301 3.04925 80.039 3.24626 80.8106C4.01788 83.7986 6.20141 85.9821 9.18939 86.7537C9.96102 86.9507 11.5699 87 18.1205 87H26.0994L26.1979 83.1747C26.2964 78.8569 26.4113 78.1674 27.4949 76.0167C28.7098 73.6033 31.1067 71.5511 33.7007 70.7303C35.0469 70.287 37.7394 70.1392 39.1513 70.4019C39.7259 70.5168 40.8916 70.9437 41.7453 71.3541C44.6676 72.7496 46.9168 75.6063 47.5735 78.7256C47.7377 79.5136 47.8197 80.9419 47.8197 83.421V87H55.8315C63.1373 87 63.9581 86.9672 65.0253 86.6881C67.767 85.9657 69.8848 83.9135 70.7221 81.139C70.9192 80.4987 70.9684 78.7913 70.9684 71.7153V63.0633L74.8758 62.9976C78.307 62.9155 78.898 62.8663 79.9159 62.5544C83.3964 61.438 86.0889 58.4992 86.8277 54.9859C87.862 50.0771 84.8412 44.9548 79.998 43.3951C79.2757 43.1653 78.2742 43.0832 75.0728 43.0175L71.0505 42.919L70.9684 33.9715C70.8863 26.0583 70.8535 24.9419 70.6072 24.3344C69.6714 22.0032 67.9968 20.3286 65.6656 19.3928C65.0581 19.1465 63.9417 19.1137 56.0285 19.0316L47.081 18.9495L46.9825 14.9272C46.9168 11.7258 46.8347 10.7243 46.6049 10.002C45.6198 6.93191 43.2393 4.55138 39.9886 3.41856C38.7245 2.9753 36.2782 2.86037 34.8499 3.18872Z" fill="white"/>
</svg>
