<svg width="25" height="25" viewBox="0 0 25 25" fill="none" xmlns="http://www.w3.org/2000/svg">
<g clip-path="url(#clip0_159_2503)">
<path d="M11.3291 0.053709C6.95414 0.502928 3.21879 3.0664 1.29985 6.93847C0.694377 8.15429 0.337932 9.27246 0.113323 10.6494C-0.0282789 11.5332 -0.0380445 13.3594 0.0889086 14.209C0.450237 16.5381 1.36821 18.6475 2.78422 20.3857C3.90239 21.7578 5.33793 22.9004 6.93461 23.6816C8.20414 24.3066 9.29301 24.6533 10.6455 24.8633C11.6221 25.0146 13.3311 25.0146 14.3077 24.8633C15.6651 24.6533 16.7588 24.3018 18.0235 23.6816C19.2979 23.0518 20.2354 22.3828 21.2803 21.3477C22.3057 20.3369 23.0381 19.3115 23.6875 17.9932C24.2979 16.748 24.6446 15.6348 24.8643 14.209C24.9913 13.3594 24.9815 11.5332 24.8399 10.6494C24.2637 7.08984 22.3301 4.05762 19.3907 2.09472C18.7461 1.66504 17.4864 1.02539 16.7686 0.761717C16.0899 0.512693 15.0694 0.253904 14.3223 0.1416C13.5704 0.029295 12.0079 -0.0195332 11.3291 0.053709ZM14.2344 2.23633C18.1504 2.93457 21.3829 5.81543 22.4668 9.58008C22.7842 10.6836 22.8526 11.2061 22.8477 12.5244C22.8428 13.8379 22.7793 14.3262 22.4668 15.4053C21.4903 18.7842 18.7608 21.5137 15.3819 22.4902C14.2881 22.8076 13.8194 22.8711 12.4766 22.8711C11.1338 22.8711 10.6651 22.8076 9.57133 22.4902C6.19242 21.5137 3.46293 18.7842 2.48637 15.4053C2.16899 14.3115 2.10551 13.8428 2.10551 12.5C2.10551 11.4893 2.12504 11.2158 2.21293 10.7422C2.61332 8.56445 3.59477 6.68457 5.12797 5.15137C6.80766 3.47168 8.92192 2.44629 11.3047 2.15332C11.9248 2.07519 13.5899 2.12402 14.2344 2.23633Z" fill="white"/>
<path d="M10.7725 8.18856C10.6846 8.23251 10.5674 8.33993 10.5186 8.41806C10.4307 8.56454 10.4258 8.75009 10.4258 12.5147C10.4258 16.0841 10.4355 16.4796 10.5039 16.6016C10.6895 16.9093 11.1045 16.9874 11.4268 16.7725C11.5244 16.7042 12.7549 15.8106 14.1611 14.795C16.2461 13.2813 16.7295 12.9054 16.7979 12.7638C16.8906 12.5733 16.8711 12.3438 16.749 12.1729C16.6611 12.046 11.4121 8.22274 11.2314 8.15438C11.0557 8.08602 10.9678 8.09579 10.7725 8.18856Z" fill="white"/>
</g>
<defs>
<clipPath id="clip0_159_2503">
<rect width="25" height="25" fill="white"/>
</clipPath>
</defs>
</svg>
