<svg width="23" height="23" viewBox="0 0 23 23" fill="none" xmlns="http://www.w3.org/2000/svg">
<path d="M10.5963 0.0790043C6.77795 0.391504 3.37951 2.56924 1.49474 5.91885C-0.0872892 8.73135 -0.385141 12.1737 0.679312 15.2548C1.24572 16.8808 2.09045 18.2382 3.31603 19.4979C6.75841 23.0282 12.066 23.956 16.5045 21.8026C18.902 20.6356 20.8893 18.5849 21.9488 16.1874C23.6969 12.2372 23.1305 7.76943 20.4547 4.36123C19.8248 3.56045 18.5748 2.42764 17.7008 1.871C16.7291 1.25088 15.5231 0.718653 14.4537 0.440332C13.6432 0.225489 13.1012 0.137598 12.2809 0.0741215C11.5485 0.0204105 11.3092 0.0204105 10.5963 0.0790043ZM12.9889 2.24209C13.9752 2.41787 14.6832 2.64736 15.5475 3.05752C19.1608 4.78604 21.2701 8.59951 20.8014 12.5741C20.3961 16.0604 18.0719 19.039 14.7955 20.2646C10.6744 21.8075 6.06994 20.3036 3.65295 16.622C2.9547 15.5575 2.49084 14.3563 2.23693 12.9647C2.11974 12.3153 2.11974 10.6845 2.23693 10.0351C2.42736 9.00479 2.6422 8.31631 3.05724 7.45205C4.45373 4.53213 7.19298 2.58389 10.4742 2.17861C10.9967 2.11025 12.4664 2.14932 12.9889 2.24209Z" fill="white"/>
<path d="M11.0113 4.33203C10.8892 4.40039 10.7281 4.54688 10.6451 4.65918L10.4986 4.86914L10.4839 8.26758C10.4742 10.7383 10.4839 11.7246 10.5279 11.8662C10.5718 12.0273 10.8697 12.3496 12.2466 13.7363C14.024 15.5186 14.1851 15.6504 14.6099 15.6504C15.3667 15.6504 15.8599 14.8789 15.5474 14.1855C15.4742 14.0244 15.0591 13.5752 13.9898 12.501L12.5249 11.0361L12.5152 7.95508L12.5005 4.87402L12.3687 4.68359C12.1539 4.38086 11.9292 4.25391 11.5533 4.23438C11.2847 4.21973 11.1919 4.23926 11.0113 4.33203Z" fill="white"/>
</svg>
