<svg width="30" height="30" viewBox="0 0 30 30" fill="none" xmlns="http://www.w3.org/2000/svg">
<g clip-path="url(#clip0_159_2574)">
<path d="M13.6106 0.0585785C10.1067 0.398422 6.89577 1.91014 4.40553 4.39452C2.03835 6.7617 0.59108 9.70311 0.104752 13.1543C-0.0065764 13.9746 0.0110017 16.1719 0.139908 17.0215C0.391861 18.6973 0.813736 20.0801 1.52272 21.5449L1.97975 22.4941L1.02467 25.4648C0.49733 27.1055 0.046158 28.5469 0.0227205 28.6699C-0.094467 29.3965 0.602799 30.0937 1.32936 29.9765C1.45241 29.9531 2.89381 29.5019 4.53444 28.9746L7.50514 28.0195L8.45436 28.4765C9.9192 29.1855 11.302 29.6074 12.9778 29.8594C13.8274 29.9883 16.0247 30.0058 16.845 29.8945C20.2962 29.4082 23.2141 27.9726 25.593 25.6055C27.9192 23.2793 29.343 20.4375 29.8645 17.0508C30.0051 16.1074 30.0051 13.8926 29.8645 12.9492C29.343 9.56834 27.9309 6.74413 25.6048 4.40623C23.2962 2.09178 20.4192 0.650375 17.1087 0.146469C16.3762 0.035141 14.3665 -0.011734 13.6106 0.0585785ZM16.177 2.40233C18.1106 2.59569 20.2434 3.31639 21.7024 4.27733C24.3098 5.98241 26.0969 8.26756 27.0051 11.0508C27.7024 13.1836 27.8313 15.2168 27.4153 17.4316C27.1516 18.8086 26.4368 20.6191 25.7219 21.7031C24.0344 24.2754 21.7669 26.0683 19.0305 26.9824C15.4739 28.1719 11.8469 27.7734 8.43678 25.8281C7.78053 25.4531 7.76881 25.459 5.18483 26.2969C3.99538 26.6836 3.011 27 3.00514 26.9941C2.99928 26.9883 3.31569 26.0039 3.70241 24.8144C4.57545 22.1367 4.56374 22.2539 4.05983 21.3574C2.9817 19.4414 2.45436 17.6074 2.36061 15.4394C2.12624 9.90233 5.73561 4.73436 11.0501 2.99413C12.7669 2.43163 14.4837 2.23827 16.177 2.40233Z" fill="white"/>
<path d="M8.625 13.6348C8.49023 13.6816 8.26172 13.834 8.12109 13.9805C7.53516 14.5664 7.53516 15.4336 8.12109 16.0195C8.70703 16.6055 9.57422 16.6055 10.1602 16.0195C11.2617 14.9238 10.0957 13.1133 8.625 13.6348Z" fill="white"/>
<path d="M14.4844 13.6348C14.3496 13.6816 14.1211 13.834 13.9805 13.9805C13.3945 14.5664 13.3945 15.4336 13.9805 16.0195C14.5664 16.6055 15.4336 16.6055 16.0195 16.0195C17.1211 14.9238 15.9551 13.1133 14.4844 13.6348Z" fill="white"/>
<path d="M20.3438 13.6348C20.209 13.6816 19.9805 13.834 19.8398 13.9805C19.2539 14.5664 19.2539 15.4336 19.8398 16.0195C20.4258 16.6055 21.293 16.6055 21.8789 16.0195C22.9805 14.9238 21.8145 13.1133 20.3438 13.6348Z" fill="white"/>
</g>
<defs>
<clipPath id="clip0_159_2574">
<rect width="30" height="30" fill="white"/>
</clipPath>
</defs>
</svg>
