<svg width="34" height="31" viewBox="0 0 34 31" fill="none" xmlns="http://www.w3.org/2000/svg">
<path d="M31.6024 7.67602C31.8127 6.9436 31.6024 6.40454 30.5911 6.40454H27.2445C26.3922 6.40454 26.0002 6.86743 25.7899 7.38306C25.7899 7.38306 24.0854 11.6663 21.6763 14.4436C20.8979 15.2463 20.5399 15.5041 20.1138 15.5041C19.9036 15.5041 19.5797 15.2463 19.5797 14.5139V7.67602C19.5797 6.79712 19.3411 6.40454 18.6365 6.40454H13.3752C12.8411 6.40454 12.5229 6.8147 12.5229 7.19556C12.5229 8.02759 13.7274 8.22095 13.8524 10.5647V15.6506C13.8524 16.7639 13.6593 16.969 13.2331 16.969C12.0968 16.969 9.3354 12.6682 7.69904 7.74634C7.3695 6.79126 7.04563 6.40454 6.18768 6.40454H2.84109C1.88654 6.40454 1.69336 6.86743 1.69336 7.38306C1.69336 8.29712 2.82972 12.8381 6.98313 18.8381C9.75018 22.9338 13.6479 25.1545 17.1934 25.1545C19.324 25.1545 19.5854 24.6623 19.5854 23.8127C19.5854 19.8987 19.3922 19.5295 20.4604 19.5295C20.9547 19.5295 21.807 19.7873 23.7956 21.762C26.0684 24.1057 26.4434 25.1545 27.7161 25.1545H31.0627C32.0172 25.1545 32.5002 24.6623 32.2218 23.6897C31.5854 21.6448 27.2843 17.4377 27.0911 17.1565C26.5968 16.5002 26.7388 16.2073 27.0911 15.6213C27.0968 15.6155 31.182 9.68579 31.6024 7.67602V7.67602Z" fill="white"/>
</svg>
