<svg width="40" height="41" viewBox="0 0 40 41" fill="none" xmlns="http://www.w3.org/2000/svg">
<path d="M16.8043 10.4345C11.6856 10.5294 8.68014 10.7635 7.73739 11.1432C6.88321 11.4912 6.16824 12.1429 5.74432 12.9464C5.19385 13.9904 4.9028 16.2809 4.8332 20.1088C4.78259 23.1648 4.94709 25.9425 5.29509 27.7014C5.66839 29.6186 6.69973 30.7132 8.47767 31.0865C10.0974 31.4282 14.3936 31.6306 20.0311 31.6243C25.7889 31.6243 29.8889 31.4345 31.6099 31.0865C32.173 30.9726 32.9702 30.574 33.3878 30.207C33.8244 29.8211 34.2673 29.1567 34.4508 28.6126C34.957 27.1193 35.267 22.7726 35.1278 19.1661C34.938 14.2688 34.5394 12.7313 33.1917 11.7126C32.5716 11.2444 32.1414 11.0736 31.1796 10.9027C29.9901 10.7003 27.1302 10.5231 24.1122 10.4598C20.5816 10.3902 19.3162 10.3839 16.8043 10.4345ZM20.8853 18.7358C23.0176 19.9633 24.7575 20.9946 24.7575 21.0263C24.7512 21.0769 17.0637 25.5502 16.9814 25.5502C16.9751 25.5502 16.9624 23.5128 16.9624 21.0263C16.9624 18.5397 16.9751 16.5023 16.9877 16.5023C17.0004 16.5023 18.753 17.5083 20.8853 18.7358Z" fill="white"/>
</svg>
