<svg width="40" height="40" viewBox="0 0 40 40" fill="none" xmlns="http://www.w3.org/2000/svg">
<circle cx="20" cy="20" r="19.5" stroke="white"/>
<path d="M13.8253 12.3132C13.4078 11.8956 12.7307 11.8956 12.3132 12.3132C11.8956 12.7308 11.8956 13.4078 12.3132 13.8253L18.4878 20L12.3132 26.1747C11.8957 26.5922 11.8957 27.2692 12.3132 27.6868C12.7308 28.1044 13.4078 28.1044 13.8254 27.6868L20 21.5122L26.1746 27.6868C26.5922 28.1044 27.2692 28.1044 27.6868 27.6868C28.1043 27.2692 28.1043 26.5922 27.6868 26.1747L21.5122 20L27.6868 13.8253C28.1044 13.4078 28.1044 12.7308 27.6868 12.3132C27.2693 11.8956 26.5922 11.8956 26.1747 12.3132L20 18.4879L13.8253 12.3132Z" fill="white"/>
</svg>
