<svg width="40" height="40" viewBox="0 0 40 40" fill="none" xmlns="http://www.w3.org/2000/svg">
<circle cx="20" cy="20" r="20" fill="url(#paint0_linear_112_1494)"/>
<g clip-path="url(#clip0_112_1494)">
<path d="M11.4883 18.0702C10.6445 18.2967 10 19.1288 10 19.9998C10 20.6913 10.4414 21.4295 11.0508 21.7538C11.832 22.1678 12.7734 22.0311 13.3906 21.4139C13.7969 21.0077 13.9844 20.5584 13.9844 19.9998C13.9844 19.4413 13.7969 18.992 13.3906 18.5858C12.9023 18.0975 12.1484 17.8905 11.4883 18.0702Z" fill="white"/>
<path d="M19.5037 18.0664C18.8045 18.2539 18.2498 18.8203 18.0662 19.5195C17.7966 20.5586 18.4568 21.6562 19.5193 21.9336C20.5584 22.2031 21.656 21.543 21.9334 20.4805C22.2029 19.4414 21.5427 18.3437 20.4802 18.0664C20.2029 17.9922 19.7732 17.9961 19.5037 18.0664Z" fill="white"/>
<path d="M27.5198 18.0625C26.8519 18.2304 26.2464 18.8242 26.0745 19.4804C25.8948 20.1757 26.0941 20.8984 26.6097 21.414C27.5628 22.3672 29.1761 22.0976 29.7738 20.8906C30.0784 20.2773 30.0784 19.7226 29.7738 19.1093C29.3675 18.2851 28.4105 17.8398 27.5198 18.0625Z" fill="white"/>
</g>
<defs>
<linearGradient id="paint0_linear_112_1494" x1="4.35384e-08" y1="44.0741" x2="42.9316" y2="40.2891" gradientUnits="userSpaceOnUse">
<stop stop-color="#1153FC"/>
<stop offset="1" stop-color="#9600FF"/>
</linearGradient>
<clipPath id="clip0_112_1494">
<rect width="20" height="20" fill="white" transform="translate(10 10)"/>
</clipPath>
</defs>
</svg>
