<svg width="35" height="35" viewBox="0 0 35 35" fill="none" xmlns="http://www.w3.org/2000/svg">
<path d="M17.6353 1.5106C12.2896 1.9481 7.5318 4.99693 4.89313 9.68639C2.67828 13.6239 2.26129 18.4432 3.75153 22.7567C4.54449 25.0331 5.72711 26.9335 7.44293 28.6971C12.2623 33.6395 19.6929 34.9383 25.9068 31.9237C29.2632 30.2899 32.0455 27.4188 33.5289 24.0624C35.9761 18.5321 35.1832 12.2772 31.4371 7.50572C30.5552 6.38463 28.8052 4.79869 27.5816 4.01939C26.2213 3.15123 24.5328 2.40611 23.0357 2.01646C21.9009 1.71568 21.1422 1.59264 19.9937 1.50377C18.9683 1.42857 18.6334 1.42857 17.6353 1.5106ZM20.9849 4.53893C22.3658 4.78502 23.357 5.10631 24.567 5.68053C29.6255 8.10045 32.5787 13.4393 31.9224 19.0038C31.355 23.8846 28.1011 28.0546 23.5142 29.7704C17.7447 31.9305 11.2984 29.8251 7.91461 24.6708C6.93707 23.1805 6.28766 21.4989 5.93219 19.5506C5.76813 18.6415 5.76813 16.3583 5.93219 15.4491C6.19879 14.0067 6.49957 13.0428 7.08063 11.8329C9.03571 7.74498 12.8707 5.01744 17.4644 4.45006C18.1959 4.35435 20.2535 4.40904 20.9849 4.53893Z" fill="white"/>
<path d="M18.2163 7.46472C18.0454 7.56042 17.8198 7.7655 17.7036 7.92273L17.4985 8.21667L17.478 12.9745C17.4643 16.4335 17.478 17.8143 17.5395 18.0126C17.601 18.2382 18.018 18.6893 19.9458 20.6307C22.434 23.1259 22.6596 23.3104 23.2544 23.3104C24.3139 23.3104 25.0044 22.2303 24.5669 21.2596C24.4643 21.0341 23.8833 20.4052 22.3862 18.9012L20.3354 16.8505L20.3217 12.537L20.3012 8.22351L20.1167 7.95691C19.8159 7.53308 19.5014 7.35535 18.9751 7.328C18.5991 7.30749 18.4692 7.33484 18.2163 7.46472Z" fill="white"/>
</svg>
