<svg width="35" height="35" viewBox="0 0 35 35" fill="none" xmlns="http://www.w3.org/2000/svg">
<g clip-path="url(#clip0_94_3566)">
<path d="M15.8608 0.0751915C9.7358 0.704098 4.50631 4.29297 1.81978 9.71387C0.972128 11.416 0.473105 12.9814 0.158652 14.9092C-0.0395904 16.1465 -0.0532623 18.7031 0.124472 19.8926C0.630331 23.1533 1.91549 26.1064 3.89791 28.54C5.46334 30.4609 7.4731 32.0605 9.70846 33.1543C11.4858 34.0293 13.0102 34.5146 14.9038 34.8086C16.271 35.0205 18.6635 35.0205 20.0307 34.8086C21.9311 34.5146 23.4624 34.0225 25.2329 33.1543C27.017 32.2725 28.3295 31.3359 29.7924 29.8867C31.228 28.4717 32.2534 27.0361 33.1626 25.1904C34.0171 23.4473 34.5024 21.8887 34.81 19.8926C34.9878 18.7031 34.9741 16.1465 34.7758 14.9092C33.9692 9.92578 31.2622 5.68066 27.1469 2.93261C26.2446 2.33105 24.4809 1.43554 23.476 1.0664C22.5258 0.71777 21.0971 0.355465 20.0512 0.198238C18.9985 0.0410118 16.811 -0.0273476 15.8608 0.0751915ZM19.9282 3.13086C25.4106 4.1084 29.936 8.1416 31.4536 13.4121C31.8979 14.957 31.9936 15.6885 31.9868 17.5342C31.9799 19.373 31.8911 20.0566 31.4536 21.5674C30.0864 26.2979 26.2651 30.1191 21.5346 31.4863C20.0034 31.9307 19.3471 32.0195 17.4672 32.0195C15.5874 32.0195 14.9311 31.9307 13.3999 31.4863C8.66939 30.1191 4.8481 26.2979 3.48092 21.5674C3.03658 20.0361 2.94771 19.3799 2.94771 17.5C2.94771 16.085 2.97506 15.7021 3.0981 15.0391C3.65865 11.9902 5.03268 9.3584 7.17916 7.21191C9.53072 4.86035 12.4907 3.4248 15.8266 3.01465C16.6948 2.90527 19.0258 2.97363 19.9282 3.13086Z" fill="white"/>
<path d="M15.0815 11.4639C14.9585 11.5254 14.7944 11.6758 14.7261 11.7852C14.603 11.9902 14.5962 12.25 14.5962 17.5205C14.5962 22.5176 14.6099 23.0713 14.7056 23.2422C14.9653 23.6729 15.5464 23.7822 15.9976 23.4815C16.1343 23.3858 17.8569 22.1348 19.8257 20.7129C22.7446 18.5938 23.4214 18.0674 23.5171 17.8692C23.647 17.6026 23.6196 17.2813 23.4487 17.042C23.3257 16.8643 15.9771 11.5117 15.7241 11.416C15.478 11.3203 15.355 11.334 15.0815 11.4639Z" fill="white"/>
</g>
<defs>
<clipPath id="clip0_94_3566">
<rect width="35" height="35" fill="white"/>
</clipPath>
</defs>
</svg>
