<svg width="22" height="20" viewBox="0 0 22 20" fill="none" xmlns="http://www.w3.org/2000/svg">
<g clip-path="url(#clip0_191_1363)">
<path d="M20.7343 4.59766C20.8745 4.10937 20.7343 3.75 20.0601 3.75H17.829C17.2608 3.75 16.9995 4.05859 16.8593 4.40234C16.8593 4.40234 15.7229 7.25781 14.1169 9.10937C13.5979 9.64453 13.3593 9.8164 13.0752 9.8164C12.9351 9.8164 12.7192 9.64453 12.7192 9.15625V4.59766C12.7192 4.01172 12.5601 3.75 12.0904 3.75H8.5828C8.22674 3.75 8.01462 4.02344 8.01462 4.27734C8.01462 4.83203 8.81765 4.96094 8.90098 6.52344V9.91406C8.90098 10.6562 8.77219 10.793 8.4881 10.793C7.73053 10.793 5.88962 7.92578 4.79871 4.64453C4.57901 4.00781 4.3631 3.75 3.79113 3.75H1.56007C0.92371 3.75 0.794922 4.05859 0.794922 4.40234C0.794922 5.01172 1.5525 8.03906 4.32144 12.0391C6.16613 14.7695 8.76462 16.25 11.1283 16.25C12.5487 16.25 12.7229 15.9219 12.7229 15.3555C12.7229 12.7461 12.5942 12.5 13.3063 12.5C13.6358 12.5 14.204 12.6719 15.5298 13.9883C17.0449 15.5508 17.2949 16.25 18.1434 16.25H20.3745C21.0108 16.25 21.3328 15.9219 21.1472 15.2734C20.723 13.9102 17.8555 11.1055 17.7267 10.918C17.3972 10.4805 17.4919 10.2852 17.7267 9.89453C17.7305 9.89062 20.454 5.9375 20.7343 4.59766V4.59766Z" fill="white"/>
</g>
<defs>
<clipPath id="clip0_191_1363">
<rect width="21.8182" height="20" fill="white" transform="translate(0.0898438)"/>
</clipPath>
</defs>
</svg>
