<svg width="28" height="28" viewBox="0 0 28 28" fill="none" xmlns="http://www.w3.org/2000/svg">
<path d="M11.8695 7.10336C8.45704 7.16663 6.45343 7.32271 5.82492 7.57579C5.25548 7.80779 4.77883 8.24226 4.49621 8.77796C4.12924 9.47395 3.9352 11.0009 3.8888 13.5529C3.85506 15.5902 3.96473 17.442 4.19673 18.6146C4.4456 19.8927 5.13315 20.6225 6.31845 20.8713C7.39829 21.0991 10.2624 21.2341 14.0208 21.2299C17.8592 21.2299 20.5926 21.1033 21.7399 20.8713C22.1153 20.7954 22.6468 20.5297 22.9252 20.285C23.2163 20.0277 23.5115 19.5848 23.6339 19.2221C23.9713 18.2266 24.178 15.3287 24.0852 12.9244C23.9587 9.65955 23.6929 8.63454 22.7945 7.95543C22.3811 7.64328 22.0943 7.52939 21.4531 7.4155C20.6601 7.28052 18.7535 7.16242 16.7414 7.12024C14.3877 7.07384 13.5441 7.06962 11.8695 7.10336ZM14.5902 12.6376C16.0117 13.4559 17.1717 14.1434 17.1717 14.1645C17.1675 14.1983 12.0424 17.1805 11.9876 17.1805C11.9834 17.1805 11.975 15.8222 11.975 14.1645C11.975 12.5068 11.9834 11.1486 11.9918 11.1486C12.0003 11.1486 13.1687 11.8192 14.5902 12.6376Z" fill="white"/>
</svg>
