<svg width="31" height="30" viewBox="0 0 31 30" fill="none" xmlns="http://www.w3.org/2000/svg">
<g clip-path="url(#clip0_280_875)">
<path d="M15.6156 1.2948C11.0335 1.6698 6.95541 4.28308 4.69369 8.30262C2.79525 11.6776 2.43783 15.8085 3.71517 19.5057C4.39486 21.4569 5.40853 23.0858 6.87924 24.5975C11.0101 28.8339 17.3792 29.9471 22.7054 27.3632C25.5824 25.9628 27.9671 23.5018 29.2386 20.6249C31.3363 15.8846 30.6566 10.5233 27.4456 6.43348C26.6898 5.47254 25.1898 4.11316 24.141 3.44519C22.9749 2.70105 21.5277 2.06238 20.2445 1.7284C19.2718 1.47058 18.6214 1.36512 17.637 1.28894C16.7581 1.22449 16.471 1.22449 15.6156 1.2948ZM18.4867 3.89051C19.6703 4.10144 20.5199 4.37683 21.557 4.86902C25.8929 6.94324 28.4242 11.5194 27.8617 16.2889C27.3753 20.4725 24.5863 24.0468 20.6546 25.5175C15.7093 27.369 10.1839 25.5643 7.28353 21.1464C6.44564 19.869 5.889 18.4276 5.58432 16.7577C5.44369 15.9784 5.44369 14.0214 5.58432 13.2421C5.81283 12.0057 6.07064 11.1796 6.56869 10.1425C8.24447 6.63855 11.5316 4.30066 15.4691 3.81433C16.096 3.7323 17.8597 3.77918 18.4867 3.89051Z" fill="white"/>
<path d="M16.1135 6.39832C15.967 6.48035 15.7737 6.65613 15.6741 6.79089L15.4983 7.04285L15.4807 11.121C15.469 14.0858 15.4807 15.2694 15.5334 15.4393C15.5862 15.6327 15.9436 16.0194 17.5959 17.6835C19.7288 19.8221 19.9221 19.9803 20.4319 19.9803C21.3401 19.9803 21.9319 19.0546 21.5569 18.2225C21.469 18.0292 20.9709 17.4901 19.6877 16.201L17.9299 14.4432L17.9182 10.746L17.9006 7.04871L17.7424 6.82019C17.4846 6.45691 17.2151 6.30457 16.7639 6.28113C16.4417 6.26355 16.3303 6.28699 16.1135 6.39832Z" fill="white"/>
</g>
<defs>
<clipPath id="clip0_280_875">
<rect width="30" height="30" fill="white" transform="translate(0.5)"/>
</clipPath>
</defs>
</svg>
