<svg width="31" height="30" viewBox="0 0 31 30" fill="none" xmlns="http://www.w3.org/2000/svg">
<g clip-path="url(#clip0_280_869)">
<path d="M14.095 0.0644512C8.84497 0.603514 4.36255 3.67969 2.05982 8.32617C1.33325 9.78515 0.905519 11.127 0.635987 12.7793C0.466065 13.8398 0.454347 16.0312 0.60669 17.0508C1.04028 19.8457 2.14185 22.377 3.84107 24.4629C5.18286 26.1094 6.90552 27.4805 8.82153 28.418C10.345 29.168 11.6516 29.584 13.2747 29.8359C14.4465 30.0176 16.4973 30.0176 17.6692 29.8359C19.2981 29.584 20.6106 29.1621 22.1282 28.418C23.6575 27.6621 24.7825 26.8594 26.0364 25.6172C27.2668 24.4043 28.1458 23.1738 28.925 21.5918C29.6575 20.0977 30.0735 18.7617 30.3372 17.0508C30.4895 16.0312 30.4778 13.8398 30.3079 12.7793C29.6165 8.50781 27.2961 4.86914 23.7688 2.51367C22.9954 1.99804 21.4836 1.23047 20.6223 0.914061C19.8079 0.615232 18.5833 0.304686 17.6868 0.16992C16.7844 0.0351543 14.9094 -0.0234394 14.095 0.0644512ZM17.5813 2.68359C22.2805 3.52148 26.1594 6.97851 27.4602 11.4961C27.8411 12.8203 27.9231 13.4473 27.9172 15.0293C27.9114 16.6055 27.8352 17.1914 27.4602 18.4863C26.2883 22.541 23.0129 25.8164 18.9583 26.9883C17.6458 27.3691 17.0833 27.4453 15.4719 27.4453C13.8606 27.4453 13.2981 27.3691 11.9856 26.9883C7.93091 25.8164 4.65552 22.541 3.48364 18.4863C3.10278 17.1738 3.02661 16.6113 3.02661 15C3.02661 13.7871 3.05005 13.459 3.15552 12.8906C3.63599 10.2773 4.81372 8.02148 6.65357 6.18164C8.66919 4.16601 11.2063 2.93554 14.0657 2.58398C14.8098 2.49023 16.8079 2.54883 17.5813 2.68359Z" fill="white"/>
<path d="M13.4268 9.82619C13.3213 9.87892 13.1807 10.0078 13.1221 10.1016C13.0166 10.2774 13.0107 10.5 13.0107 15.0176C13.0107 19.3008 13.0225 19.7754 13.1045 19.9219C13.3271 20.291 13.8252 20.3848 14.2119 20.127C14.3291 20.0449 15.8057 18.9727 17.4932 17.7539C19.9951 15.9375 20.5752 15.4863 20.6572 15.3164C20.7686 15.0879 20.7451 14.8125 20.5986 14.6074C20.4932 14.4551 14.1943 9.86721 13.9775 9.78517C13.7666 9.70314 13.6611 9.71486 13.4268 9.82619Z" fill="white"/>
</g>
<defs>
<clipPath id="clip0_280_869">
<rect width="30" height="30" fill="white" transform="translate(0.5)"/>
</clipPath>
</defs>
</svg>
