<svg width="50" height="50" viewBox="0 0 50 50" fill="none" xmlns="http://www.w3.org/2000/svg">
<circle cx="25" cy="25" r="25" fill="url(#paint0_linear_109_2139)"/>
<path d="M20.2929 25.7071C19.9024 25.3166 19.9024 24.6834 20.2929 24.2929L26.6569 17.9289C27.0474 17.5384 27.6805 17.5384 28.0711 17.9289C28.4616 18.3195 28.4616 18.9526 28.0711 19.3431L22.4142 25L28.0711 30.6569C28.4616 31.0474 28.4616 31.6805 28.0711 32.0711C27.6805 32.4616 27.0474 32.4616 26.6569 32.0711L20.2929 25.7071ZM22 26L21 26L21 24L22 24L22 26Z" fill="white"/>
<defs>
<linearGradient id="paint0_linear_109_2139" x1="5.4423e-08" y1="55.0926" x2="53.6645" y2="50.3613" gradientUnits="userSpaceOnUse">
<stop stop-color="#1153FC"/>
<stop offset="1" stop-color="#9600FF"/>
</linearGradient>
</defs>
</svg>
